# xmcd CD database file
#
# Track frame offsets:
#	151
#	16556
#	36415
#	41882
#	65378
#	79287
#	94539
#	99721
#	114977
#	128528
#	145838
#	149268
#	159452
#	171750
#	185740
#	198028
#	210367
#	224790
#	239122
#	267425
#	281589
#	302142
#	314143
#	326304
#
# Disc length: 4603 seconds
#
# Revision: 0
# Processed by: cddbd v1.5.2PL0 Copyright (c) Steve Scherf et al.
# Submitted via: CDex 1.70beta2
#
DISCID=6511f918
DTITLE=Charlie Parker, Lennie Tristano - Complete Recordings
DYEAR=1951
DGENRE=Jazz
TTITLE0=All of Me
TTITLE1=I Can't Believe That You're in Love wiht Me
TTITLE2=Ko Ko
TTITLE3=Hot House
TTITLE4=I Surrender Dear
TTITLE5=Fine and Dandy
TTITLE6=Ko Ko
TTITLE7=On The Sunny Side of The Street into 52nd St. Theme
TTITLE8=How Deep is the Ocean
TTITLE9=Tiger Rag
TTITLE10=52nd St. Theme
TTITLE11=52nd St. Theme
TTITLE12=Donna Lee
TTITLE13=Everything I Have is Yours
TTITLE14=Fats Flats-Hot House
TTITLE15=Tea for Two
TTITLE16=Don't Blame Me
TTITLE17=Groovin' High
TTITLE18=Ko Ko into Anthropology
TTITLE19=Overtime
TTITLE20=Overtime (long take)
TTITLE21=Victory Ball (short take 1)
TTITLE22=Victory Ball (Short take 2)
TTITLE23=Victory Ball (long take)
EXTD=YEAR: 1951
EXTT0=
EXTT1=
EXTT2=
EXTT3=
EXTT4=
EXTT5=
EXTT6=
EXTT7=
EXTT8=
EXTT9=
EXTT10=
EXTT11=
EXTT12=
EXTT13=
EXTT14=
EXTT15=
EXTT16=
EXTT17=
EXTT18=
EXTT19=
EXTT20=
EXTT21=
EXTT22=
EXTT23=
PLAYORDER=
